# xmcd
#
# Track frame offsets: 
#        151
#        18810
#        36391
#        53826
#        71861
#        88860
#        105021
#        124034
#        141921
#        158312
#        175833
#        193060
#
# Disc length: 2794 seconds
#
# Revision: 0
# Processed by: cddbd v1.5.1PL2 Copyright (c) Steve Scherf et al.
# Submitted via: ExactAudioCopy v0.95b4
#
DISCID=980ae80c
DTITLE=เพลงตลก เสียงอีสาน - ชุด โคตรงก
DYEAR=2003
DGENRE=Country
TTITLE0=โครตงก
TTITLE1=จำหมู่หมี
TTITLE2=ตายคาวง
TTITLE3=หัวใจอ้ายแหลม
TTITLE4=ตลกตกฮ้าน
TTITLE5=เก็บคนละกิ่ง
TTITLE6=บ่ตายนำดอก
TTITLE7=สระแอด
TTITLE8=ไอ้หนุ่มรถซุก
TTITLE9=ลูกมีพ่อมีแม่
TTITLE10=ขวัญใจคนรวย
TTITLE11=บ่โรแมนติก
EXTD=
EXTT0=
EXTT1=
EXTT2=
EXTT3=
EXTT4=
EXTT5=
EXTT6=
EXTT7=
EXTT8=
EXTT9=
EXTT10=
EXTT11=
PLAYORDER=
